<svg width="58" height="58" xmlns="http://www.w3.org/2000/svg">
<path fill="rgb(255,255,255)" d="M4 18L4 46L20 46L24.9985 45.9969C26.2801 45.9818 27.563 45.9727 28.8395 45.8395L29.841 45.642L30.3287 45.5849L32 45L31.3465 43.3287L31.0093 42.8426L30.4082 41.8441L28.9892 40.0201L28.2623 39.1559L27.4977 38.1574L27.0818 37.6713L26 36L27.6713 35.6466L29.1605 35.2454C31.1002 34.6979 33.0254 34.084 35 33.669C36.6475 33.3227 38.3108 33.0702 40 33.1327L42 33.3333L42.9992 33.534L43.9961 33.804L45.9599 34.5725L47.811 35.7029L48.6566 36.419L49.4313 37.2245L50.1211 38.108L51.2315 40.0108C51.9104 41.3748 52.3015 42.8584 52.669 44.3287L53 46L53.5849 44.9136L53.642 44.483L53.8395 43.679C53.9423 42.7862 53.9763 41.8794 53.9707 40.9815L53.8943 38.9992L53.787 38L53.6096 37L53.3619 36L52.6366 34C52.1726 32.9815 51.6858 31.9812 51.1196 31.0147C50.353 29.706 49.5074 28.4416 48.4707 27.3287C47.6943 26.4952 46.8316 25.7702 45.9066 25.108L43.9853 23.9051L41.9992 22.9043L41 22.4753L39 21.75C37.6872 21.3152 36.3463 20.9804 35 20.669L34 20.4645L32 20.1736L31 20.0903C29.9996 20.0389 29.002 20.006 28 20.0185C27.0011 20.031 25.9937 20.0588 25 20.1698C23.6589 20.3196 22.3311 20.5351 21 20.7546L19 21.0941L17 21.4799L16 21.6829C15.0109 21.8523 14.0075 22.0383 13 21.8873L12 21.6667L10.0046 20.7369L7.16049 19.0062L5.6713 18.3418L4 18M6 21L7.6713 21.9645L8.15895 22.2762L10.0448 23.3056L12.0046 23.9761L13.0015 24.1073L15 24.0062L18 23.4205L22 22.615C22.9943 22.4361 23.9927 22.2631 25 22.1744C26.3274 22.0574 27.6728 22.0337 29 22.1736C30.6768 22.3504 32.3381 22.6399 34 22.9205L37 23.4529L39 23.9275L41 24.5633L41.9992 24.9699L42.9961 25.4421L44.956 26.652L45.8912 27.3927L46.7716 28.2091C47.5924 28.9743 48.2088 29.9219 48.8148 30.8549L49.5285 32.3295L50 34L45.9552 32.5139L44.9753 32.2068C43.6884 31.8062 42.346 31.4962 41 31.3904C39.3153 31.2581 37.6592 31.4926 36 31.7616C34.9933 31.9248 33.9958 32.1207 33 32.3395L32 32.5949L30.0015 33.2423L27.0448 34.3943L24.6713 35.3688L23 36L24.0818 37.6698L24.4985 38.1543L25.2623 39.1358L26.7377 40.8642L27.5015 41.8457L27.9182 42.3302L29 44L5 44L5 30L5.01389 26.0185C5.04247 25.1183 5.05611 24.2172 5.16049 23.321L5.35802 22.517L5.41512 22.0864L6 21z"/>
</svg>