<svg width="580" height="171" xmlns="http://www.w3.org/2000/svg">
<path fill="rgb(98,240,104)" d="M0 1L0.25 2.5L0.638889 4.05556L0.861111 5L1.13889 6L1.36111 7L1.61111 8L1.80556 9L2.19444 11L2.38889 12L2.86111 14L3.13889 15L3.36111 16L3.86111 18L4.13889 19L4.61111 21L4.80556 22L5.19444 24L5.38889 25L5.86111 27L6.13889 28L6.63889 30L6.86111 31L7.13889 32L7.61111 34L7.80556 35L8.19444 37L8.61111 39L8.77778 39.9444L8.97222 41.5L9 43L14 43L14.0833 41.5L14.2222 40.9444L14.3889 39.9444L14.8611 38L15.1389 37L15.3611 36L15.6111 35L15.8056 34L16.1944 32L16.6111 30L16.8056 29L17.1944 27L17.6667 25.0556L18.0278 24.0556L18.1944 23.5L19 22L19.8056 23.5L19.9722 24.0556L20.3333 25.0556L20.8056 27L21.1944 29L21.3889 30L21.8056 32L22.1944 34L22.3889 35L22.6389 36L22.8611 37L23.1389 38L23.6111 39.9444L23.7778 40.9444L23.9167 41.5L24 43L29 43L29.0833 40.9444L29.3889 39L29.8056 37L30.1944 35L30.3889 34L30.6389 33L30.8611 32L31.1389 31L31.6111 29L31.8056 28L32.1944 26L32.3889 25L32.8611 23L33.1389 22L33.3611 21L33.6111 20L33.8056 19L34.1944 17L34.3889 16L34.8611 14L35.1389 13L35.6111 11L35.8056 10L36.1944 8L36.3889 7L36.6111 6L36.9167 4.05556L36.9722 3.05556L37 1L33 1L32.9167 2.5L32.7778 3.05556L32.3889 5L32.1944 6L31.8056 8L31.6111 9L31.3889 10L31 12L30.7778 13L30.5278 14L29.8333 16L29.4722 17L29 19L28.6111 21L28.1944 23L27.8056 25L27.6111 26L27.3889 27L27.0833 28.9444L27.0278 29.9444L27 32L26.1944 30.5L25.6667 28.9444L25.1944 27L24.8056 25L24.5833 24L24.3056 23L23.6944 21L23.4167 20L23.1944 19L22.8056 17L22.6111 16L22.1389 14L21.8611 13L21.6389 12.0556L21.25 10.5L21 9L16 9L15.9722 11.0556L15.9167 12.0556L15.6111 14L15.1389 16L14.8611 17L14.3611 19L14.1389 20L13.8611 21L13.3889 23L13.1944 24L12.8056 26L12.3889 28L12.0833 30L12.0278 30.9444L12 31.9444L12 34L11.2778 32.5L11.25 31.9444L10.9444 30L10.6111 28L10.1944 26L10 25L9.58333 23L9.30556 22L8.69444 20L8.41667 19L8.05556 17L7.77778 15L7.61111 14L7.19444 12L6.80556 10L6.61111 9L6.36111 8L6.13889 7L5.86111 6L5.38889 4.05556L5.22222 3.05556L5.08333 2.5L5 1L0 1M224 3L224 35L229 35L229 3L224 3M239 3L239 35L243 35L243 3L239 3M139 7L139.111 8.5L139.667 10L139.861 10.5L141 12L142.444 11.75L143.556 11.4167L145 11L145 7L144 6L142 6.05556L141 6.25L140.5 6.27779L139 7M208 35L208.417 33.5556L208.75 32.4444L209 31L206.944 31L205.944 31L204 30.9722L203 30.9167L201 30.5833L200 30.2778L198 29.3611L196.083 27.8889L194.5 26L193.5 24L193.083 22L193.056 21L193.083 20L193.5 18L194.5 16.0278L195.25 15.0833L197.028 13.5L198 12.9167L200 12.0278L202 11.4167L203 11.2222L204 11.0833L206 11L207 11L207.944 11L211 11L211 26L211 31L211 33L211 34L211 36L210.917 38L210.5 40L209.5 41.9167L207.917 43.5L206.972 44.0556L206 44.5L204 44.9167L203 44.9722L201 45L199 45L194 45L194.25 46.4444L194.583 47.5556L195 49L201 49L203 49L204 49L206 49L207 48.9722L208 48.8889L209 48.6667L210.972 47.6667L212.694 45.9722L213.361 45L214.278 43L214.583 42L214.917 40L215 38L215 37L215 35L215 7L206 7L204 7L203 7L201 7.08333L199 7.41667L198 7.69444L196 8.38889L195.028 8.83333L193.222 9.86111L192.417 10.4722L191.694 11.25L191.028 12.0833L189.889 14L189.417 15L188.694 17L188.417 18L188.083 20L188.083 22L188.222 23L188.417 24L189.028 26L189.833 28L190.278 28.9722L191.472 30.7778L192.25 31.5833L194.028 32.9167L196 33.9167L197 34.2778L198 34.5833L200 34.9167L202 35L204 35L204.944 35L208 35M47 18L47 24L48.5 23.25L49.0556 22.7778L50.0556 22.1389L51 21.4444L53 20.2778L54 19.8611L55 19.5L57 19.3056L58 19.4444L60 20.0278L61 20.4167L62.9167 21.5L64.5 23.0833L65.5 24.9444L65.75 25.9444L65.9167 26.5L66 28L59 28L56 28L55 28L53 28L52 28.0278L51 28.1111L49.0278 28.7222L47.25 30.1111L46.5 31.0278L45.5 33L45.1111 35L45.1111 36L45.5 38L46.5 39.9722L47.25 40.8889L49.0278 42.2778L50 42.6667L51 42.8889L52 42.9722L54 43L55 43L57 43L63 43L63.6667 41.5556L64.3333 40.4444L65 39L51 39L50.1667 37.25L49.9722 36.7222L49 36L50.1667 34L50.5278 33.4444L51 32L66 32L66 35.0556L66 36L66 37L66.0833 39L66.2222 39.9444L66.4167 40.9444L67 43L72 43L71.5556 41.5L71.3333 40.9444L70.6944 39L70.4167 38L70.0833 36L70 34L70 32L70 29L70 27L70 26L69.9167 24L69.75 23L69.5 22L68.5 20.0833L66.9167 18.4722L65 17.2778L63 16.4444L61 15.8611L60 15.6389L59 15.3889L57 15.0833L56 15.0278L54 15.0833L53 15.25L52 15.4722L50.0556 16.2222L49.0556 16.7778L48.5 17L47 18M79 15L79.25 16.5L79.6111 18.0556L79.9167 20L79.9722 21L80 23L80 25L80 28L80 43L84 43L84 39L84 36L84 34L84.0278 32L84.0833 31L84.3889 29L84.6389 28L84.8889 27L85.6944 25L86.3333 24L88.0278 22.1111L90 20.7222L91 20.3333L92.9444 20.0278L93.9444 20L96 20L96 15L94.5 15L92.9444 15.0833L91 15.4167L90 15.6944L88 16.3889L87.0556 16.8056L86.0556 17.1944L85.5 17.5L84 18L83 16L83 15L79 15M103 15L103.444 16.5L103.667 17.0556L104.306 19L104.583 20L104.778 21L104.917 22L105 24L105 25L105 26L105 29L105 43L109 43L109 37L109 35L109 34L109 32L109.028 31L109.083 30L109.417 28L109.722 27L110.639 25L112.111 23.0278L113.028 22.1111L114 21.3333L115 20.7222L116 20.3333L118 20.0556L119 20.1111L120 20.3056L122 21.1111L123.917 22.4167L125.5 24.0833L126.5 26L126.75 27L126.972 29L127 31L127 32L127 33L127 36L127 43L132 43L132 35L132 33L132 32L131.917 30L131.611 28L131.389 27L131 25L130.778 24L130.5 23L129.5 21L127.917 19.0833L126 17.4722L124 16.2778L123 15.8611L122 15.4722L120 15.0833L119 15.0556L118 15.0833L116 15.4167L115 15.6944L113 16.3889L112 16.8056L110.056 17.5278L109.5 17.7222L108 18L107.889 16.6111L107.278 15.6667L105.944 15.1111L104.5 15L103 15M140 15L140 43L144 43L144 15L140 15M153 15L153.25 16.5L153.611 18.0556L153.917 20L153.972 21L154 23L154 25L154 28L154 43L158 43L158 38L158 36L158 35L158 33L158.083 31L158.417 29L158.694 28L159.417 26L160.5 24L161.25 23.0278L163.028 21.3333L165 20.3333L166 20.1111L167 20.0278L169 20.1111L171 20.7222L171.972 21.3333L172.917 22.1111L174.5 24L175.083 25L175.583 26L175.972 27L176.583 29L176.917 31L176.972 32L177 33L177 35L177 36L177 38L177 43L181 43L181 32L181 30L180.972 28L180.917 27L180.528 25L180.139 24L179.722 23L178.528 21L176.917 19.0833L175 17.5L174 16.9444L173 16.4722L171 15.8611L170 15.6389L169 15.3889L167 15.1667L166 15.25L164 15.6944L162 16.3889L161.056 16.8056L160.056 17.1944L159.5 17.5L158 18L158 16L157 15L153 15M223 40L223.278 41.5L223.861 43L224.028 43.5L225 45L226.5 44.8889L227.028 44.6667L228.667 43.6667L229.556 41.9722L229.556 41.0278L229.25 40.1111L228.667 39.3333L227.889 38.75L226.056 38.3889L225.056 38.6944L223 40M240 45L241.5 44.7222L243 44.1389L243.5 43.9722L245 43L244.889 41.5L244.667 40.9722L243.667 39.3333L241.972 38.4444L241.028 38.4444L240.111 38.75L239.333 39.3333L238.75 40.1111L238.389 41.9444L238.694 42.9444L240 45z"/>
<path fill="rgb(198,189,125)" d="M4 83L4 119L7 119L7 87L14 87L17 87L18 87L20 87.0278L21 87.0833L23 87.4167L24 87.7222L25.9167 88.6389L27.5 90.1111L28.5 92L28.8889 94L28.8889 95L28.5 96.9722L28.0556 97.9167L27.5 98.75L26.75 99.5278L24.9722 100.722L24 101.139L23 101.528L21 101.917L20 101.972L19 102L17 102L16 102L14 102L9 102L9 104L10 105L17 105L20 105L21 105L23 105L25 104.917L27 104.5L27.9722 104.056L28.9167 103.5L30.5 101.917L31.5833 100L32.3056 98L32.5833 97L32.9167 95L32.9722 94L32.8889 92L32.6944 91L32.3611 90L31.2778 88L29.7778 86.1111L28.9167 85.3333L27.9722 84.6944L27 84.25L25 83.6389L24 83.3889L22 83.0833L21 83.0278L20 83L18 83L16 83L13 83L4 83M547 83L547 115L543.944 115L543 115L541 114.917L539 114.528L537.028 113.722L536.083 113.139L535.25 112.528L533.917 110.917L533.417 109.972L533.056 109L532.778 108L532.694 106L532.944 105L533.861 103.083L534.472 102.222L535.25 101.417L537.028 100.111L539 99.3056L540 99.1111L541 99.0278L541.944 99L542.944 99L545 99L545.417 97.5556L545.75 96.4444L546 95L543.944 95L542.944 95L541 95.0833L539 95.3889L538 95.6389L537 95.8611L535 96.4722L534 96.9444L533.028 97.5L531.306 99.0833L530.111 101L529.417 103L529.083 105L529.028 106L529.028 108L529.083 109L529.25 110L529.472 111L529.861 112L530.278 112.972L531.472 114.778L532.25 115.583L534.028 116.889L535 117.389L537 118.111L538 118.361L539 118.611L541 118.917L542 118.972L543 119L545 119L547 119L551 119L551 83L547 83M39 84L39 103L39 109L39 111L39.0278 112L39.0833 113L39.3889 115L39.6111 115.944L39.7778 116.944L39.9167 117.5L40 119L44 119L43.75 117.5L43.3889 115.944L43.0833 114L43.0278 113L43 111L43 109L43 102L43 84L39 84M421 87L419.861 88.0833L419.278 89.2222L419.028 90.5278L419 92L421 91.9444L422 91.75L422.5 91.7222L424 91L423.639 89.5278L422.722 88.25L422.389 87.7778L421 87M271 89L271 108L271 111L271 113L271 115L270.917 117L270.778 118L270.583 119L270.306 120L269.667 121.944L269.444 122.5L269 124L273 124L274 123L274 92L276.056 92L277.056 92L279 92.0278L280 92.0833L282 92.4167L284 93.1111L285.917 94.3056L287.5 96.0278L288.5 98L288.722 99L288.833 100L288.5 102L287.5 104L286.75 104.972L284.972 106.667L284 107.278L282 107.889L280.056 108L279.056 108L277 108L275.833 110L275.472 110.556L275 112L278.056 112L280 112L281 112L283 111.917L285 111.5L286 111.083L287.972 109.972L289.75 108.583L290.5 107.778L291.583 105.972L292.306 104L292.583 103L292.917 101L292.917 99L292.778 98L292.278 96L291.889 95L290.694 93.0278L288.972 91.25L288 90.5L286 89.5L284 89.0833L282 89L280 89L279 89L277 89L271 89M352 91L352 95L348 95L348 99L352 99L352 103L352 105L352 107L352.028 108L352.083 109L352.417 111L353.028 112.972L353.417 113.917L354.5 115.583L355.25 116.278L356.083 116.917L358 117.917L359.944 118.583L360.944 118.778L361.5 118.917L363 119L363.722 117.5L363.75 117L363.944 116L364 114L361.944 114.278L360.944 114.278L359.028 113.583L358.111 112.861L356.722 111L356.111 109L356.028 108L356 107L356 105L356 103L356 99L362 99L363.167 97L363.528 96.4444L364 95L356 95L356 91L352 91M435 91L435 95L430 95L430 99L435 99L435 105L435 107L435 108L435 110L435.028 111L435.111 112L435.722 113.972L437.111 115.75L439 117.083L440 117.583L441 117.972L442.944 118.583L443.944 118.778L444.5 118.917L446 119L446.722 117.5L446.75 117L446.944 116L447 114L444.944 114.306L443.944 114.361L443 114.278L441.083 113.472L440.25 112.75L439.5 111.917L438.5 110L438.083 108L438 106L438 105L438 103L438 99L445 99L445.667 97.5556L446.333 96.4444L447 95L438 95L438 91L435 91M71 119L71.4167 117.556L71.75 116.444L72 115L67 115L65 115L64 114.972L63 114.917L61 114.583L60 114.278L58.0833 113.361L56.4167 111.889L55.7222 110.972L54.6389 109L54.1944 107L54.2778 106L54.5 105L55.5 103.028L56.25 102.083L57.0833 101.25L58.0278 100.5L60 99.5L62 99.0833L63 99.0556L65 99.3333L65.9722 99.7222L67.6667 101.111L68.6667 102.944L68.8889 103.5L69 105L67.5 105.5L66.9444 105.806L65 106.528L64 106.75L63 106.917L61.0556 107L60.0556 107L58 107L58.7778 108.389L60.1111 109.333L62 109.889L63 109.972L65 110L66 109.972L67 109.917L68.9167 109.5L70.5278 108.5L71.1389 107.75L71.7222 106.917L72.5278 105L72.7222 104L72.7222 102L72.5278 101L71.7222 99.0833L71.1389 98.25L70.5278 97.5L68.9167 96.4167L67.9722 96.0278L66 95.4167L64 95.1111L63 95.1111L61 95.3889L60 95.6389L59 95.8611L57 96.4722L56 96.9444L55.0278 97.5L53.25 99.0833L52.4722 100.028L51.2778 102L50.8611 103L50.25 105L50.1111 106L50.2222 108L50.4167 109L51.0278 111L51.4167 112L52.5 113.972L54.0833 115.75L55.0278 116.5L57 117.528L58 117.833L60 118.361L61 118.611L63 118.917L65 119L67 119L71 119M81 97L81 102L82.5 101.306L84.0556 100.389L86 99.5L88 99.0833L90 99.1111L91 99.3333L92.9722 100.333L93.8889 101.111L95.2778 102.944L95.8889 104.5L96 106L91 106L89 106L88 106L87 106L85 106.083L83 106.5L82.0278 106.944L81.1111 107.5L79.7222 109.083L79.3333 110.028L79.1111 111L79.0833 113L79.5 114.917L80.5 116.528L82.0833 117.722L83.0278 118.139L84 118.528L86 118.917L88 119L89 119L90.9444 119L94 119L94.4167 117.556L94.75 116.444L95 115L84 115L83 114L83 110L84.5 109.75L86.0556 109.389L88 109.083L89 109.028L91 109L92.9444 109L96 109L96 111.056L96 112.056L96 113L96.0833 115L96.2222 115.944L96.4167 116.944L97 119L101 119L100.75 117.5L100.389 115.944L100.083 114L100.028 113L100 111L100 109L100 107L100 106L99.9167 104L99.5 102L98.5 100.028L96.9167 98.25L95.9722 97.5L94 96.4167L92 95.6944L90 95.25L89 95.1667L88 95.25L86 95.6389L85 95.8611L84.0556 96.1389L83.0556 96.3889L81 97M125 110L125 114L124 115L109 115L107.833 117L107.472 117.556L107 119L114 119L117 119L118 119L120 119L121 118.972L122 118.917L124 118.528L124.972 118.139L125.917 117.722L127.5 116.528L128.056 115.75L128.5 114.917L128.889 113L128.889 112L128.5 110.028L127.5 108.25L125.917 106.917L124.972 106.417L124 106.028L122 105.417L120 105.083L118 105L116 104.917L114.056 104.611L112.5 104.25L111 104L111 99L127 99L128.167 97L128.528 96.4444L129 95L121 95L118 95L117 95L115 95.0278L114 95.0833L112 95.4167L111 95.7222L109.111 96.6389L107.722 98.1111L107.111 100L107.083 102L107.5 103.917L107.944 104.778L108.5 105.583L110.083 106.889L111.028 107.361L112 107.722L114 108.194L115 108.389L116 108.611L118 108.917L120 109.083L121 109.222L122.944 109.611L123.5 109.75L125 110M155 119L156.167 117L156.528 116.444L157 115L153 115L151 115L149 114.972L148 114.917L146 114.583L144 113.889L142.083 112.694L140.5 110.972L139.5 109L139.111 107L139.139 106L139.722 104L141.111 102.083L142.028 101.25L144 99.9444L145 99.5L147 99.0833L148.944 99L149.944 99L152 99L152.722 101.056L152.917 102.056L153.028 102.972L152.417 104.75L150.917 106.056L149 106.75L148 106.917L146.056 107L145.056 107L143 107L143 108L144 110L147.056 110L149 110L150 110L152 109.889L153.972 109.278L154.889 108.667L155.667 107.889L156.278 106.972L156.667 106L156.889 105L157 103L156.889 101L156.667 100L156.278 99.0278L154.889 97.3056L153 96.1111L152 95.7222L151 95.4167L149 95.1111L148 95.1111L146 95.3889L145 95.6111L143 96.0278L142 96.2778L140.083 97.1111L138.417 98.4167L137.722 99.2222L136.556 101.028L136.083 102L135.417 104L135.083 106L135.083 108L135.417 110L136.083 112L136.556 112.972L137.722 114.778L138.417 115.583L140.083 116.889L142 117.722L143 117.972L145 118.389L147 118.778L148 118.917L150 119L151 119L151.944 119L155 119M174 95L174 104L174 106L174 107L174.083 109L174.472 111L174.861 112L175.278 112.972L176.472 114.778L178.083 116.278L179.028 116.889L180 117.389L182 118.111L183 118.333L184 118.528L186 118.528L187 118.333L188 118.111L189.944 117.417L190.944 116.972L191.5 116.667L193 116L193.361 117.389L194.333 118.333L195.056 118.667L196.5 118.972L198 119L197.556 117.5L197.333 116.944L196.694 115L196.417 114L196.222 113L196.083 112L196 110L196 109L196 108L196 106L196 95L193 95L193 99L193 101L193 103L192.972 104L192.917 105L192.583 107L191.972 109L191.583 109.972L190.5 111.75L189.75 112.528L187.972 113.722L187 114.139L185 114.639L184 114.583L182 113.667L181.028 112.889L180.111 111.972L178.639 110L177.722 108L177.417 107L177.083 105L177.028 104L177 102L177 100L177 95L174 95M221 114L218.944 114.583L217.944 114.778L217 114.917L215 115L214 115L212 115L204 115L203.333 116.444L202.667 117.556L202 119L209 119L212 119L213 119L215 119L216 118.972L217 118.917L219 118.583L220 118.278L220.972 117.889L222.75 116.694L223.5 115.889L224.472 114L224.667 112L224.472 111L223.5 109.083L221.917 107.5L220.972 106.917L219 106.028L217 105.417L215 105.056L214 104.944L212 104.611L211 104.361L210 104.139L209.056 103.861L208.056 103.611L206 103L206 100L207 99L223 99L224.167 97L224.528 96.4444L225 95L218 95L215 95L214 95L212 95L211 95.0278L210 95.0833L208 95.4167L207 95.7222L206.028 96.1111L204.333 97.3056L203.722 98.1111L203.333 99.0278L203.111 100L203.028 102L203.111 103L203.333 103.972L203.722 104.917L205.111 106.5L206.028 107.056L207 107.5L209 108L211 108.389L213 108.778L214 108.917L216 109.111L217.972 109.722L219.667 111.056L220.639 112.5L221 114M251 119L252.167 117L252.528 116.444L253 115L249 115L247 115L245 114.972L244 114.917L242 114.583L240 113.889L238.028 112.694L237.083 111.889L235.5 110L234.972 109L234.583 108L234.5 107L234.889 105L235.278 104.028L236.472 102.222L237.25 101.417L238.083 100.722L240 99.6389L242 99.1111L244 99.0833L245 99.2222L246.944 99.6111L247.5 99.75L249 100L248.889 102.056L248.667 103.056L247.667 104.889L245.972 106.278L244 106.889L243 106.972L242.056 107L241.056 107L239 107L239 109L240 110L244 110L246 109.972L247 109.917L248.917 109.5L250.528 108.5L251.139 107.75L252.139 105.972L252.528 105L252.889 103L252.889 102L252.5 100L251.5 98.1111L249.917 96.6944L248.972 96.25L247 95.6389L246 95.3889L244 95.1111L243 95.1111L241 95.3889L240 95.6389L238 96.1667L237 96.4722L235.028 97.5L233.306 99.0833L232.111 101L231.417 103L231.083 105L231.028 106L231.028 108L231.083 109L231.25 110L231.472 111L231.861 112L232.278 112.972L233.472 114.778L234.25 115.583L236.028 116.889L237 117.389L239 118.111L240 118.361L242 118.778L243 118.917L245 119L247 119L251 119M309 95.4722L308 95.6667L306 96.1667L305 96.4722L303.083 97.5L302.25 98.25L300.861 100.028L299.861 102L299.472 103L299.083 105L299.028 107L299.083 108L299.417 110L299.694 111L300.028 112L300.417 112.972L301.5 114.75L302.25 115.528L304.028 116.722L305 117.167L306 117.611L308 118.278L309 118.5L311 118.528L312 118.333L313 118.111L315 117.389L315.972 116.889L316.917 116.278L318.528 114.778L319.139 113.917L319.722 112.972L320.528 111L320.917 109L321 107L320.972 105L320.694 103L319.889 101L319.278 100.028L318.583 99.0833L316.917 97.5L315 96.4722L313 95.8611L312 95.6667L311 95.4722L309 95.4722M327 95L327.583 97.0556L327.778 98.0556L327.917 99L328 101L328 103L328 107L328 119L332 119L332 114L332 112L332 111L332 110L332.028 108L332.25 106L332.5 105L333.5 103L335.083 101.111L337 99.7222L338 99.3333L338.944 99.1111L340.5 99L342 99L341.667 97.1944L341.278 96.4444L339.889 95.5833L338 95.5L337 95.7222L335.056 96.3611L334.056 96.8333L333.5 97.0278L332 98L331 96L331 95L327 95M369 95L369.667 96.5L369.972 97.0556L370.694 99L370.889 100L370.972 101L371 103L371 104L371 107L371 119L374 119L374 115L374 113L374 111L374.083 109L374.417 107L374.694 106L375.417 104.028L375.917 103.083L377.25 101.417L378.083 100.722L380 99.6389L381.944 99.1111L382.5 99.0278L384 99L383.75 97L383.722 96.4444L383 95L381.5 95.25L379.944 95.6389L379 95.8611L378 96.1667L377.056 96.4167L376.056 96.8611L375.5 97.0278L374 98L373.889 96.6111L373.278 95.6667L371.944 95.1111L370.5 95L369 95M392 97L392 103L393.5 102.25L394.056 101.778L396 100.472L398 99.5L399 99.25L400 99.1111L402 99.25L403.972 99.9444L404.889 100.5L406.361 102.083L406.889 102.972L407.556 104.5L408 106L403 106L401 106L400 106L398 106L396 106.083L394.056 106.444L392.5 107.028L391 108L391 111.056L391.028 113L391.333 114.972L391.722 115.889L392.333 116.694L393.111 117.361L394.028 117.889L396 118.583L397 118.778L398 118.917L400 119L401 119L401.944 119L405 119L406.167 117L406.528 116.444L407 115L403.944 115L403 115L401 115L400 114.972L399 114.889L398 114.694L396.056 113.972L395.5 113.667L394 113L395.167 111L395.528 110.444L396 109L408 109L408 118L409 119L413 119L412.417 116.944L412.222 115.944L412.083 115L412 113L412 112L412 111L412 109L412 108L412 107L411.917 105L411.528 103L411.139 102L410.722 101L409.528 99.0833L407.917 97.5L406.972 96.9167L405 96.0278L404 95.6944L403 95.4167L401 95.1667L400 95.25L399 95.3889L397 95.8611L396 96.1389L395.056 96.3611L393.5 96.75L392 97M419 95L419 119L423 119L423 95L419 95M462 95L462.444 96.5L462.667 97.0556L463.306 99L463.583 100L463.778 101L463.917 102L464 104L464 105L464 106L464 108L464 119L467 119L467 114L467 112L467.028 110L467.083 109L467.389 107L467.639 106L468.25 104L468.694 103L470.111 101.111L471.028 100.361L473 99.6667L474.972 100.361L475.889 101.111L477.306 103L477.75 104L478.361 106L478.611 107L478.917 109L478.972 110L479 112L479 114L479 119L482 119L482 110L482 108L481.972 106L481.917 105L481.611 103.056L481.25 101.5L481 100L483.056 99.6944L484.056 99.6389L485 99.7222L486.917 100.528L488.5 102.083L489.5 104L489.917 106L490 108L490 110L490 111L490 113L490 119L494 119L494 113L494 111L494 110L493.917 108L493.778 107L493.389 105L493.194 104L492.722 102L491.889 100.028L490.583 98.25L489.778 97.5L487.972 96.5L486 96.0833L484 96.0278L483.028 96.1111L482.111 96.2778L481.306 96.6667L480.778 96.8611L480 98L478 98L477.222 96.8333L475.889 96.0556L474 95.5L472 95.5556L470.056 96.2222L469.056 96.7778L468.5 97L467 98L466.639 96.6111L465.667 95.6667L464.944 95.3333L463.5 95.0278L462 95M510 95.4722L509 95.6667L508 95.8889L507 96.2222L505.083 97.1111L503.417 98.4167L502.028 100.083L500.917 102L500.5 103L500.25 104L500.028 106L500.083 108L500.417 110L500.722 111L501.111 112L502.306 113.972L503.111 114.917L505 116.5L506 117.083L508 117.972L509 118.306L510 118.556L512 118.694L514 118.306L515 117.972L516.972 117.083L517.917 116.5L519.528 114.917L520.722 113L521.528 111L521.75 110L521.917 109L522 107L521.972 105L521.889 104L521.694 103L520.889 101L519.583 99.0833L518.778 98.25L517.917 97.5L516 96.4722L514 95.8611L513 95.6667L512 95.4722L510 95.4722M578 119L578.417 117.556L578.75 116.444L579 115L574 115L572 115L571 114.972L570 114.917L568 114.583L567 114.278L565.083 113.361L563.417 111.889L562.722 110.972L561.639 109L561.194 107L561.278 106L561.5 105L562.5 103.028L563.25 102.083L564.083 101.25L565.028 100.5L567 99.5L569 99.0833L570 99.0556L572 99.3333L572.972 99.7222L574.667 101.111L575.667 102.944L575.889 103.5L576 105L574.5 105.5L573.944 105.806L572 106.528L571 106.75L570 106.917L568.056 107L567.056 107L565 107L565.778 108.389L567.111 109.333L569 109.889L570 109.972L572 110L573 109.972L574 109.917L575.917 109.5L577.528 108.5L578.139 107.75L578.722 106.917L579.528 105L579.722 104L579.722 102L579.528 101L578.722 99.0833L578.139 98.25L577.528 97.5L575.917 96.4167L574.972 96.0278L573 95.4167L571 95.1111L570 95.1111L568 95.3889L567 95.6389L566 95.8611L564 96.4722L563 96.9444L562.028 97.5L560.25 99.0833L559.472 100.028L558.278 102L557.861 103L557.25 105L557.111 106L557.222 108L557.417 109L558.028 111L558.417 112L559.5 113.972L561.083 115.75L562.028 116.5L564 117.528L565 117.833L567 118.361L568 118.611L570 118.917L572 119L574 119L578 119M309 99.25L311 99.1389L312 99.3056L312.972 99.6389L313.917 100.111L315.528 101.417L316.139 102.222L317.139 104.028L317.722 106L317.833 107L317.528 109L317.139 109.972L316.139 111.75L315.528 112.5L313.917 113.583L312.972 113.972L311 114.583L309 114.806L308 114.639L306.083 113.667L304.5 111.972L303.5 110L303.083 108L303.028 107L303.028 106L303.333 104L303.722 103.028L304.333 102.083L305.111 101.25L306.028 100.5L308 99.5L309 99.25M510 99.25L512 99.1389L513 99.3056L513.972 99.6389L514.917 100.111L516.5 101.417L517.083 102.222L517.583 103.083L518.306 105L518.556 106L518.694 107L518.5 109L517.722 110.917L517.139 111.75L516.528 112.5L514.917 113.583L513 114.306L512 114.583L510 114.806L509 114.639L507.083 113.667L505.5 111.972L504.5 110L504.083 108L504.028 107L504.028 106L504.333 104L504.722 103.028L505.333 102.083L506.111 101.25L507.028 100.5L509 99.5L510 99.25M94 131L94 150L94 156L94 158L94.0278 159L94.0833 160L94.3889 162L94.6111 162.944L94.7778 163.944L94.9167 164.5L95 166L99 166L98.75 164.5L98.3889 162.944L98.0833 161L98.0278 160L98 158L98 156L98 149L98 131L94 131M195 131L195 166L198 166L198 161L198 159L198.028 157L198.083 156L198.417 154L198.722 153L199.639 151L201.111 149.083L203 147.5L204 146.972L205 146.583L207 146.583L208 146.972L209 147.5L210.889 149.083L212.361 151L212.889 152L213.583 154L213.778 155L213.917 156L214 158L214 159L214 161L214 166L217 166L217 157L217 155L217 154L216.972 153L216.75 151L216.5 150L215.583 148L214.306 146.083L212.778 144.5L211.917 143.944L210 143.167L208 142.667L207 142.472L205 142.472L204 142.667L203 142.889L201.056 143.583L200.056 144.028L199.5 144.333L198 145L198 131L195 131M224 135L224 139L228 139L228 135L224 135M66 136L66 154L66 160L66 161L65.9722 163L65.9167 164L65.6111 166L65.2222 167.944L65.0278 169.5L65 171L67 170.75L67.5556 170.722L69 170L69 139L72.0556 139L73 139L75 139.083L77 139.417L79 140.111L80 140.639L80.9722 141.306L82.6667 143.028L83.2778 144L83.8889 146L83.9167 148L83.5 149.972L82.5 151.778L81.75 152.583L79.9722 153.889L78 154.694L77 154.889L76 154.972L75.0556 155L74.0556 155L72 155L71.5833 156.444L71.25 157.556L71 159L73.0556 159L74.0556 159L75 159L77 158.917L78 158.778L79 158.583L81 157.972L83 157.083L83.9722 156.5L85.6944 154.917L86.8889 153L87.5833 151L87.9167 149L87.9722 147L87.9167 146L87.5833 144L87.2778 143L86.8889 142L85.6944 140.028L84.8889 139.083L83.9722 138.25L83 137.5L81 136.5L79 136.083L77 136L75 136L74 136L72 136L66 136M134 136L134.5 137.5L134.833 138.056L135.25 139.056L135.778 140L136.778 142L137.222 143L137.778 144L138.222 145L138.778 146L139.778 148L140.222 149L140.778 149.972L141.194 150.889L141.778 151.694L142 152.222L143 153L142 154.5L141.778 155.056L141.194 156.056L140.778 157L139.778 159L139.222 160L138.778 161L138.222 162L137.778 163L137.222 164L136.75 165L135.639 167L134.639 168.944L134.333 169.5L134 171L138 171L139 169.5L139.222 168.944L139.806 167.944L140.778 166L141.222 165L141.778 164L142.222 163L143.222 161L143.778 160L144.222 159L145.222 157L145.778 156L146.222 155L146.778 154L147.222 153L147.778 152L148.222 151L148.778 150L149.222 149L149.778 148L150.222 147L150.778 146L151.778 144L152.222 143L152.778 142L153.222 141L153.75 140L154.139 139.056L154.722 137.5L155 136L151 136L150.5 137.5L150.167 138.056L149.75 139.056L149.222 140L148.222 142L147.778 143L147.222 144L146.778 145L146.25 145.944L145.833 146.944L145.5 147.5L145 149L144 147.5L143.778 146.944L143.194 145.944L142.778 145L142.222 144L141.222 142L140.778 141L139.75 139.028L138.528 137.333L137.75 136.722L136.972 136.333L135.5 136.028L134 136M290 159L290.417 157.556L290.75 156.444L291 155L287.944 155L286 155L284 154.889L282 154.278L280.083 152.889L278.5 151L277.944 150L277.278 148L277.194 147L277.333 146L278.111 144.028L278.722 143.083L280.222 141.5L281.083 140.917L283 140.028L285 139.417L286 139.222L287 139.083L288.944 139L289.944 139L292 139L292 152L292 156L292 158L292 160L291.972 161L291.889 162L291.667 163L290.667 164.889L289.889 165.667L288.972 166.278L287 166.889L285 167L284 167L282 167L278 167L278.25 168.444L278.583 169.556L279 171L283 171L285 171L287 170.917L289 170.583L290 170.306L291.917 169.583L292.75 169.083L293.5 168.5L294.083 167.75L294.972 165.972L295.583 164L295.917 162L295.972 161L296 160L296 158L296 156L296 151L296 136L290 136L288 136L287 136L285 136L284 136.028L283 136.083L281 136.472L279 137.278L278.028 137.861L277.083 138.472L275.5 140.083L274.417 142L274.028 143L273.417 145L273.222 146L273.111 147L273.111 148L273.417 150L273.694 151L274.417 153L275.5 154.917L276.25 155.778L277.083 156.583L279 157.889L281 158.694L282 158.889L283 158.972L285 159L286.944 159L290 159M8 139L7.63889 140.389L6.66667 141.333L5.94444 141.667L4.5 141.972L3 142L3 146L8 146L8 151L8 153L8 154L8 155L8.02778 157L8.25 159L8.5 160L9.5 161.972L11.0833 163.694L12.0278 164.361L14 165.278L15.9444 165.778L17.5 165.972L19 166L20 165L20 161L17.9444 161.556L16.9444 161.667L16 161.583L14.0833 160.667L13.25 159.889L12.5 158.972L11.5 157L11.0833 155L11 153L11 152L11 150L11 146L18 146L18.6667 144.556L19.3333 143.444L20 142L16.9444 142L16 142L15 141.972L14.0278 141.889L12.3333 141.333L11.3611 140.389L11 139L8 139M176 139L176 142L172 142L172 146L176 146L176 151L176 153L176.083 155L176.389 157L176.639 158L176.861 159L177.472 160.917L177.944 161.778L178.5 162.583L179.25 163.278L180.083 163.917L182 164.917L183 165.278L184 165.583L184.944 165.778L186.5 165.972L188 166L188 162L186.5 161.972L184.944 161.667L184 161.278L182.111 159.889L181.333 158.972L180.722 158L180.111 156L180.028 155L180 154L180 152L180 150L180 146L187 146L187.417 144.556L187.75 143.444L188 142L180 142L180 139L176 139M36 142.5L34 143.028L32.0278 143.833L31.0833 144.278L29.4167 145.472L28.0278 147.083L27.4167 148.028L26.5 150L26.25 151L26.0278 153L26.0278 155L26.0833 156L26.4722 158L26.8611 159L27.2778 159.972L28.4722 161.778L30.0833 163.306L31.0278 163.972L32 164.583L34 165.5L36 165.833L37 165.75L39 165.361L41 164.778L42 164.389L43.9167 163.278L45.5278 161.778L46.7222 159.972L47.5278 158L47.9167 156L47.9722 155L47.9722 153L47.9167 152L47.5 150L46.5833 148.028L45.9722 147.083L45.3056 146.25L44.5833 145.472L43.7778 144.861L42.9167 144.278L41 143.389L40 143.028L38 142.5L36 142.5M107 144L107 150L108.5 149.25L109.056 148.778L110.056 148.139L111 147.472L113 146.5L115 146.167L117 146.5L118.972 147.5L119.917 148.25L121.5 149.972L122.472 151.5L123 153L117 153L115 153L114 153L113 153L111 153.083L110.028 153.25L108.25 153.944L107.5 154.5L106.5 156.083L106.083 158L106.028 159L106.111 161L106.333 161.972L106.722 162.917L107.333 163.75L109.028 165.056L110 165.5L112 165.917L114 166L116 166L120 166L121.167 164L121.528 163.444L122 162L110 162L109.833 160.167L109.778 159.389L109.833 158.667L110 157L123 157L123 165L124 166L128 166L127.417 163.944L127.222 162.944L127.083 162L127 160L127 158L127 156L127 155L126.917 153L126.583 151L126.278 150L125.444 148.028L124.278 146.25L123.583 145.472L122.778 144.861L121.917 144.278L120 143.389L119 143.028L117 142.417L116 142.25L115 142.167L114 142.25L113 142.417L111 143L110.056 143.306L108.5 143.75L107 144M224 142L224 166L228 166L228 142L224 142M253 157L253 162L246 162L244 162L243 162L241 162L240 162.028L239 162.111L238.028 162.333L236.333 163.278L235.361 164.528L235 166L243 166L246 166L247 166L248 166L250 165.972L251 165.917L252.972 165.5L253.917 165.056L255.5 163.75L256.056 162.917L256.5 161.972L256.75 161L256.861 159L256.278 157.028L255.667 156.083L253.972 154.5L252 153.417L251 153.028L249 152.417L247 152.083L246 152.028L244 151.917L242.056 151.611L240.5 151.25L239 151L239 147L240 146L255 146L256.167 144L256.528 143.444L257 142L249 142L246 142L245 142L243 142.028L242 142.083L240 142.417L239.028 142.722L237.25 143.639L236.5 144.306L235.5 146.028L235.111 148L235.111 149L235.5 150.972L235.944 151.917L237.25 153.5L239.028 154.5L241 155L243 155.389L244 155.611L246 155.944L247 156.056L249 156.389L250.944 156.778L251.5 156.917L253 157M304 144L304 150L305.5 149.25L306.056 148.778L308 147.472L310 146.5L312 146.167L313 146.278L314 146.5L315.972 147.5L317.694 149.083L318.917 150.944L319.167 151.5L320 153L314 153L312 153L311 153L310 153L308 153.083L307 153.25L305.111 153.944L304.306 154.5L303.111 156.083L302.722 157.028L302.444 158L302.306 159L302.528 161L303.5 162.917L305.083 164.5L306.028 165.056L307 165.5L309 165.917L311 166L312 166L313.944 166L317 166L318.167 164L318.528 163.444L319 162L314 162L312 162L310 161.917L309.056 161.778L308.056 161.583L306 161L306 158L307 157L320 157L320 159.056L320 160.056L320 161L320.111 162.972L320.333 163.889L320.722 164.667L321.278 165.278L322.056 165.667L324 166L323.972 164.5L323.778 162.944L323.389 161L323.083 159L323.028 158L323 156L323 155L323 153L322.972 151L322.667 149L322.278 148L320.889 146.083L319 144.5L317 143.417L315 142.694L313 142.25L312 142.167L311 142.25L310 142.417L308 143L307.056 143.306L305.5 143.75L304 144M330 142L330.444 143.5L330.667 144.056L331.306 146L331.583 147L331.778 148L331.917 149L332 151L332 152L332 153L332 155L332 166L335 166L335 162L335 160L335 158L335.083 156L335.222 155L335.639 153L335.889 152L336.694 150.028L338.111 148.278L339.028 147.583L341 147L342.972 147.583L344.667 149.083L345.667 151L345.889 152L345.972 153L346 155L346 156L346 159L346 166L350 166L350 157L350 155L349.972 153L349.917 152L349.611 150.056L349.25 148.5L349 147L351.056 146.722L352.056 146.722L354 147.417L354.972 148.139L356.667 150L357.667 152L357.889 153L357.972 154L358 155L358 156L358 158L358 166L362 166L362 160L362 158L362 157L361.917 155L361.611 153L361.361 152L360.833 150L360.556 149L360.139 148.028L359.722 147.083L358.528 145.417L357.75 144.722L356.917 144.111L355 143.306L353 143.028L351.028 143.111L350.111 143.278L349.306 143.667L348.778 143.861L348 145L346 145L345.222 143.861L344.694 143.667L343.889 143.278L342.972 143.111L342 143.028L340 143.083L338.056 143.444L336.5 144.028L335 145L334.639 143.611L333.667 142.667L332.944 142.333L331.5 142.028L330 142M388 166L388.667 164.556L389.333 163.444L390 162L385 162L383 162L382 162L380 161.972L379 161.917L377 161.5L375.083 160.5L373.472 158.917L372.278 157L371.861 156L371.361 154L371.417 153L372.333 151L373.111 150.028L374.028 149.083L376 147.5L378 146.5L379 146.25L380 146.111L381 146.139L382.972 146.722L384.639 148.111L385.167 149.028L385.333 150L385.167 150.972L384.639 151.889L383.889 152.667L382 153.667L381 153.889L379.056 154L378.056 154L376 154L376.25 155.444L376.583 156.556L377 158L379.056 158L380.056 157.972L381 157.917L383 157.583L385 156.972L386.889 156.083L387.694 155.5L388.889 153.917L389.278 152.972L389.583 152L389.889 150L389.889 149L389.5 147.028L389.056 146.083L387.75 144.5L386.917 143.917L385 143.028L384 142.694L383 142.417L381 142.111L380 142.111L378 142.389L377 142.639L375 143.167L374 143.472L372.083 144.5L371.25 145.25L370.472 146.083L369.278 148L368.472 150L368.25 151L368.083 152L368 154L368.028 156L368.083 157L368.5 159L368.944 160L369.5 160.972L371.083 162.75L372.028 163.5L374 164.583L375 164.972L377 165.583L379 165.917L380 165.972L381 166L383 166L384.944 166L388 166M36 146.278L37 146.167L39 146.5L40.9722 147.5L41.9167 148.25L43.5 150.028L44.0556 151L44.7222 153L44.8333 154L44.7222 155L44.1389 156.972L43.1389 158.778L42.5278 159.583L40.9167 160.889L39.9722 161.361L38 161.889L36 161.889L35 161.694L33.0833 160.889L32.25 160.278L31.5 159.583L30.5 157.917L30.0833 156L30 154L30.0278 153L30.3333 151L30.7222 150.028L32.1111 148.25L33.0278 147.5L35 146.5L36 146.278M397 160L396 162L396 163L397 165L398 166L399.5 165.889L401 165.333L401.5 165.139L403 164L402.75 162.556L402.417 161.444L402 160L397 160z"/>
</svg>