<svg width="58" height="58" xmlns="http://www.w3.org/2000/svg">
<path fill="rgb(93.72549%,50.588235%,20%)" d="M 28.769531 4.640625 C 25.875 10.132812 22.113281 15.261719 19.488281 20.878906 C 20.957031 20.816406 22.4375 20.601562 23.894531 20.414062 L 23.894531 18.097656 C 24.65625 18.097656 25.695312 18.269531 26.371094 17.859375 C 27.078125 17.429688 27.441406 16.460938 27.84375 15.777344 C 28.816406 14.117188 29.628906 12.4375 30.390625 10.671875 C 30.667969 10.03125 31.140625 9.300781 31.140625 8.585938 C 31.136719 7.273438 29.828125 5.769531 29.230469 4.640625 Z M 28.769531 4.640625 "/>
<path fill="rgb(20%,52.156863%,85.098039%)" d="M 31.320312 8.585938 C 30.546875 9.914062 29.328125 11.90625 29.195312 13.457031 C 29.09375 14.601562 30.757812 17.503906 31.828125 17.957031 C 32.609375 18.285156 33.730469 18.097656 34.566406 18.097656 L 34.566406 20.414062 C 35.816406 20.515625 37.023438 20.648438 38.28125 20.648438 C 37.359375 18.136719 35.605469 15.753906 34.242188 13.457031 C 33.296875 11.855469 32.515625 10.011719 31.320312 8.585938 Z M 31.320312 8.585938 "/>
<path fill="rgb(34.901961%,16.078431%,69.411765%)" d="M 25.519531 19.71875 L 25.519531 22.039062 C 20.863281 22.039062 16.085938 22.933594 11.601562 24.164062 C 9.648438 24.699219 7.769531 25.527344 5.800781 25.984375 C 7.460938 26.679688 10.035156 26.214844 11.832031 26.214844 L 25.519531 26.214844 L 25.519531 30.855469 L 27.144531 30.855469 L 27.144531 47.558594 L 31.550781 47.558594 L 31.550781 30.855469 L 32.710938 30.855469 L 32.710938 26.214844 L 52.894531 26.214844 C 51.160156 24.917969 48.269531 24.398438 46.167969 23.945312 C 41.714844 22.980469 37.285156 22.039062 32.710938 22.039062 L 32.710938 19.71875 Z M 25.519531 19.71875 "/>
<path fill="rgb(93.72549%,50.588235%,20%)" d="M 1.390625 52.199219 C 2.800781 52.199219 5.421875 52.707031 6.652344 51.960938 C 7.289062 51.574219 7.660156 50.734375 8.023438 50.113281 C 8.871094 48.648438 9.695312 47.171875 10.539062 45.703125 L 17.367188 33.871094 C 18.472656 31.945312 20.019531 29.980469 20.648438 27.839844 C 19.328125 27.839844 16.570312 27.3125 15.460938 28.078125 C 14.824219 28.515625 14.457031 29.507812 14.085938 30.160156 C 13.160156 31.789062 12.210938 33.410156 11.269531 35.03125 C 7.992188 40.679688 4.15625 46.285156 1.390625 52.199219 Z M 1.390625 52.199219 "/>
<path fill="rgb(20%,52.156863%,85.098039%)" d="M 37.351562 27.839844 C 38.023438 30.117188 39.621094 32.277344 40.796875 34.335938 C 42.957031 38.117188 45.066406 41.925781 47.230469 45.703125 L 49.746094 50.113281 C 50.078125 50.691406 50.390625 51.570312 50.957031 51.960938 C 51.425781 52.289062 52.121094 52.199219 52.664062 52.199219 L 56.609375 52.199219 C 53.84375 46.285156 50.007812 40.679688 46.730469 35.03125 C 45.789062 33.410156 44.839844 31.789062 43.914062 30.160156 C 43.542969 29.507812 43.175781 28.515625 42.539062 28.078125 C 41.429688 27.3125 38.671875 27.839844 37.351562 27.839844 Z M 37.351562 27.839844 "/>
<path fill="rgb(20%,52.156863%,85.098039%)" d="M 6.726562 52.199219 L 31.785156 52.199219 L 31.785156 47.558594 L 11.601562 47.558594 C 10.984375 47.558594 10.175781 47.433594 9.601562 47.699219 C 8.359375 48.269531 7.285156 51.003906 6.726562 52.199219 Z M 6.726562 52.199219 "/>
</svg>