<svg width="58" height="58" xmlns="http://www.w3.org/2000/svg">
<path fill="rgb(255,255,255)" d="m16,9.5l-1.6559,0.11805l-1.4105,0.31636l-0.7893,0.30787l-1.5725,1l-1.20992,1.48611l-0.6196,1.81559l0.13349,1.95992l0.35803,0.9961l1.2045,1.9853l1.6705,1.9213l0.9352,0.9082l1.9599,1.6528l0.9969,0.7322l1.9977,1.267l0.9969,0.5332l0.9799,0.466l1.8642,0.7284l1.0015,0.2933l2.159,0.5123l0,5l2,0l0,-4l4,0l0,5l-12,0l-0.0008,5.0247l-0.0578,2.9753l-0.2593,1.9954l-0.7099,1.946l-1.2901,1.7407l-0.8302,0.7145l-0.909,0.5756l-1.9228,0.7099l-0.9761,0.1698l-0.8835,0.0895c-1.0585,0.0573 -2.09867,0.0461 -3.1605,0.0586l0,2l3.1597,0.0046c1.2536,0.0173 2.5139,0.0356 3.7523,0.2547l1.8025,0.4506l1.7099,0.5802l0.8611,0.2547l1.804,0.3263l1.9252,0.1104l2.9853,0.0185l7,0l2.9853,-0.0185c0.9531,-0.0288 1.9043,-0.0706 2.8449,-0.2408c1.1905,-0.2153 2.3101,-0.6579 3.4553,-1.0308l1.804,-0.4506c1.2814,-0.2253 2.5895,-0.2432 3.8866,-0.2547l5.0239,-0.0046l0,-2c-1.674,-0.0002 -3.3511,0.0233 -5.0247,-0.0193l-1.9761,-0.1288l-0.9946,-0.1698l-1.946,-0.7099l-0.9105,-0.5756l-0.8302,-0.7145l-1.2901,-1.7407l-0.7099,-1.946l-0.2593,-1.9954l-0.0578,-2.9753l-0.0008,-5.0247l-6,0l0,-6l1.6551,-0.4715l0.4606,-0.2484l1.7153,-1.0216l0.7994,-0.6929l1.3627,-1.6744l1.0123,-1.9066l0.3812,-0.9885l0.3086,-0.9969l0.4854,-1.9977c0.2782,-1.2686 0.4874,-2.5526 0.6489,-3.84101l0.1288,-1.48919l0.0417,-1.6713l2.0818,0.71991l0.8758,0.46527l1.1851,1.24846l0.3974,1.66046l-0.5779,1.8318l-1.2816,1.7878c-0.9761,1.1071 -2.0183,2.1537 -2.9553,3.2956l-0.9514,1.3611l-0.7739,1.6296l1.6713,-0.7747l1.4853,-0.9653l1.8241,-1.4876l0.9151,-0.8804l1.6667,-1.9074l1.2145,-1.9846l0.561,-1.9846l-0.1891,-1.9066l-0.9051,-1.67516l-0.6767,-0.69136l-1.6311,-1l-1.7925,-0.5162l-0.4761,-0.10803l-1.6674,-0.11805l-0.3426,-1.51157l-0.2477,-0.33257l-0.439,-0.71219l-1.2886,-0.86496l-0.8302,-0.26544l-1.8712,-0.25463l-1.9815,-0.05401l-1.9992,-0.00463l-6,0l-3.9992,0.00463l-1.9815,0.05401l-0.9607,0.08797l-1.7407,0.4321l-1.2886,0.86496l-0.439,0.71219l-0.5903,1.84414m24,-2l-0.0394,5.02469l-0.1342,1.97685l-0.1266,0.99846c-0.1665,1.0083 -0.3488,2.0092 -0.6033,3l-0.5795,1.9954l-0.3712,0.9861l-1,1.885l-1.4243,1.6196l-0.855,0.6559l-0.9213,0.5401l-1.9498,0.7415l-1.9954,0.3472l-2,0l-1.9954,-0.3472l-1.9498,-0.7415l-1.7763,-1.196l-1.4243,-1.6196l-1,-1.885l-0.3712,-0.9861l-0.5795,-1.9954c-0.2545,-0.9908 -0.4368,-1.9917 -0.6033,-3l-0.1266,-0.99846l-0.1342,-1.97685l-0.0394,-5.02469l22,0m-12,2l-0.7747,1.60957l-0.9606,1.23302l-0.6644,0.59877l-1.5478,0.9591l-1.3974,0.43982l-1.6551,0.15972c0.58,1.0534 1.1733,2.0847 1.7168,3.1559l0.3935,0.8642l0.5903,1.824l0.1567,0.9985l0.1427,2.1574l1.6713,-0.1674l0.4877,-0.0687c0.9473,-0.0948 1.8875,-0.1929 2.841,-0.1929c0.9535,0 1.8937,0.0981 2.841,0.1929l0.4877,0.0687l1.6713,0.1674l-0.6543,-1.1559l-0.9545,-0.8356l-1.5154,-0.794l-1.7346,-0.4514l-1.4707,-0.0548l-1.6705,0.2917l0.2901,-1.625l-0.0872,-0.375l-0.2878,-1.375l-0.9151,-1.625l1.3889,-0.11111l0.9444,-0.55556l0.3056,-0.19444l0.3611,-1.13889l2,0l0.3611,1.13889l0.3056,0.19444l0.9444,0.55556l1.3889,0.11111l-0.9151,1.625l-0.2878,1.375l-0.0872,0.375l0.2901,1.625l1.2199,-1.0818l0.3588,-0.4105l1.3233,-1.4853l0.6952,-0.9221l0.3634,-0.4483l1.0394,-1.652l-1.6551,-0.15972l-1.3974,-0.43982l-1.5478,-0.9591l-0.6644,-0.59877l-0.9606,-1.23302l-0.7747,-1.60957l-2,0m-12,2l0.098,1.6713l0.1921,1.48919c0.3874,2.40381 0.914,4.78201 1.3943,7.16821l0.3156,1.6713l-1.6559,-0.9884l-1.4105,-1.0463l-1.6142,-1.4483l-1.4274,-1.6868c-0.623,-0.8075 -1.0013,-1.7486 -1.3773,-2.6844l-0.2392,-0.99071l-0.2755,-2.15509l1.6451,-0.4321l1.3549,-0.27778l1.3549,-0.19135l1.6451,-0.09877m21,25l0,10l-16,0l0,-10l16,0m-14,9l12,0l-0.0193,-2.1543l-0.1288,-1.8318c-0.1356,-0.8466 -0.3286,-1.7231 -0.8797,-2.412l-0.5756,-0.5741l-0.7145,-0.4244l-1.7407,-0.4545l-0.9599,-0.0856l-1.963,0l-0.9599,0.0856l-0.9105,0.169c-0.8228,0.1745 -1.5941,0.626 -2.1203,1.284c-0.5511,0.6889 -0.7441,1.5654 -0.8797,2.412l-0.1288,1.8318l-0.0193,2.1543m10,-6l0,4l-8,0l0,-4l8,0m6,9l0,2l-20,0l1.0864,-1.017l0.4306,-0.1466l0.804,-0.3866l1.7376,-0.3256l1.946,-0.1065l2.9954,-0.0177l11,0m-39,2l0,2l7,0l0,-2l-7,0m54,0l0,2l4,0l0,-2l-4,0m-33,5l1.0864,0.5849l0.429,0.0571l0.801,0.1975l1.6975,0.1265l3.9861,0.034l-1.0864,-0.5849l-0.429,-0.0571l-0.801,-0.1975l-1.6975,-0.1265l-3.9861,-0.034m10,0l1.0864,0.5849l0.4306,0.0571l0.8024,0.1975c0.8819,0.1036 1.7685,0.1173 2.6544,0.1466l1.868,0.0131l2.1582,0.0008l-1.0864,-0.5849l-0.4306,-0.0571l-0.8024,-0.1975c-0.8819,-0.1036 -1.7685,-0.1173 -2.6544,-0.1466l-1.868,-0.0131l-2.1582,-0.0008m-7,2l1.0864,0.5849l0.4306,0.0571l0.8024,0.1975c0.8819,0.1036 1.7685,0.1173 2.6544,0.1466l1.868,0.0131l2.1582,0.0008l-1.0864,-0.5849l-0.4306,-0.0571l-0.8024,-0.1975c-0.8819,-0.1036 -1.7685,-0.1173 -2.6544,-0.1466l-1.868,-0.0131l-2.1582,-0.0008z"/>
</svg>