<svg width="500" height="267" xmlns="http://www.w3.org/2000/svg">
<path fill="none" d="M0 0L0 14C15.0228 9.7767 29.7357 10.9112 45 13.2747C49.4684 13.9666 59.6239 16.1096 56.7122 22.9414C54.4107 28.3415 46.6676 27 42 27C33.2188 27 23.6961 28.041 15 26.7901C9.83131 26.0467 5.27827 23.4608 0 23L0 267L187 267C184.239 258.892 178.565 252.76 175.21 245C168.828 230.237 165.633 212.999 168.808 197C170.12 190.388 171.935 182.681 175.695 177C179.58 171.13 185.292 166.286 188.559 160C193.56 150.375 192.061 138.476 197.951 129C215.198 101.25 254.82 87.7586 283 108.556C292.137 115.3 301.7 124.983 305.402 136C307.983 143.68 307.705 152.857 311.403 160C314.679 166.328 320.088 171.06 323.867 177C327.182 182.21 329.446 188.978 330.714 195C334.155 211.351 331.853 228.738 325.279 244C321.825 252.018 315.519 258.181 314 267L500 267L500 23C494.865 23.7583 490.143 26.1919 485 26.8156C475.893 27.92 466.17 27 457 27C452.383 27 442.918 28.0193 442.752 21C442.606 14.8618 451.675 14.0018 456 13.25C471.364 10.5797 484.667 11.7882 500 13L500 0L435 0C435 9.32288 432.707 22.2265 436.148 31C438.834 37.8489 446.626 39.6995 449.821 46.0039C451.494 49.304 451 53.4195 451 57C451.001 69.2531 447.624 80.049 437 87.4861C421.051 98.6514 410.204 73.7138 407.5 62C406.62 58.188 406.381 53.5746 403.351 50.7029C399.143 46.7152 391.278 48 386 48L350 48C344.019 48 337.392 47.1241 332.044 50.3673C319.413 58.0275 337.49 70.1507 342.91 76C352.734 86.6026 361.603 101.455 363.7 116C365.28 126.963 364 138.929 364 150L364 200C364 211.332 364.077 222.668 363.999 234C363.98 236.722 363.866 244.128 359.129 242.654C354.779 241.301 356.364 234.298 355.606 231C354.478 226.092 350.317 223.322 348.178 219C346.678 215.967 346.944 212.292 347.005 209C347.151 201.067 354.317 197.497 355.671 190C357.218 181.431 356 171.696 356 163C356 146.014 357.146 128.349 351.644 112C347.246 98.9305 339.496 80.3976 326 74.4213C320.389 71.9366 316.407 75.9628 311 76.787C300.586 78.3748 289.252 74.9826 279 77.6096C273.857 78.9275 269.783 82.1404 265 84.2006C258.686 86.9204 251.793 87.453 245 86.9066C235.927 86.1768 229.589 79.5005 221 77.5293C211.058 75.2478 200.111 77.8878 190 76.8951C185.223 76.4261 180.879 72.4998 176 73.6921C165.225 76.3253 156.104 92.4897 152.468 102C150.288 107.701 147.769 112.995 146.425 119C143.2 133.414 144 148.33 144 163C144 171.504 143.117 180.559 144.185 189C145.034 195.707 151.151 198.884 152.682 205C153.629 208.781 153.719 215.472 151.973 219C149.633 223.728 145.092 226.446 144.214 232C143.738 235.008 144.691 244.28 139.129 243.369C135.659 242.8 136.018 237.505 136.001 235C135.937 225.668 136 216.333 136 207L136 149C136 138.568 134.824 127.333 136.3 117C137.578 108.056 141.552 98.8635 145.883 91C151.863 80.1427 161.268 73.3418 169.471 64.5363C172.904 60.8503 174.676 56.2569 170.768 52.2245C166.082 47.3909 159.147 48 153 48L114 48C108.722 48 100.857 46.7152 96.6489 50.7029C93.6185 53.5746 93.38 58.188 92.5 62C89.8398 73.5243 78.8982 99.1344 63 87.5664C52.6132 80.0086 49.0008 69.2421 49 57C48.9998 53.4878 48.397 49.2413 50.0278 46.0008C53.2321 39.6334 61.1551 37.8741 63.8519 31C67.2933 22.2276 65 9.32208 65 0L0 0z"/>
<path fill="rgb(27,167,217)" d="M65 0C65 9.05377 67.1914 21.4742 63.8519 30C61.1264 36.958 53.2344 38.6986 50.0278 45.0046C48.2638 48.4735 49 53.2321 49 57C49 69.0184 51.643 80.0049 62.0008 87.5664C78.4629 99.5842 89.6582 75.3107 92.5 63C93.4135 59.0425 93.7344 54.553 96.6489 51.419C100.847 46.9049 108.457 48 114 48L153 48C159.374 48.0004 166.18 47.7638 170.728 53.108C174.131 57.1054 171.943 61.2549 168.671 64.5363C160.262 72.9691 150.86 79.994 145.375 91C141.466 98.8432 137.552 107.24 136.3 116C134.733 126.971 136 138.923 136 150L136 207L136 235C136.005 237.658 135.349 243.522 139.129 244.079C145.063 244.953 143.658 235.204 144.394 232C145.54 227.016 149.813 224.365 151.973 220C153.878 216.151 153.502 209.179 152.852 205C151.832 198.443 145.064 194.946 144.185 188C143.117 179.559 144 170.504 144 162C144 147.974 143.341 133.781 146.425 120C147.769 113.995 150.288 108.701 152.468 103C156.106 93.483 165.411 77.0884 176 74.0995C180.447 72.8444 184.609 76.4639 189 76.8951C199.111 77.8878 210.058 75.2478 220 77.5293C228.589 79.5005 234.927 86.1768 244 86.9066C251.399 87.5018 259.106 87.1701 266 84.2006C270.783 82.1404 274.857 78.9275 280 77.6096C290.252 74.9826 301.586 78.3748 312 76.787C316.547 76.0939 320.294 72.5835 325 74.4606C333.001 77.652 339.001 87.0233 343.452 94C347.157 99.8072 349.886 107.439 351.971 114C356.991 129.79 356 146.658 356 163C356 171.379 357.162 180.742 355.671 189C354.671 194.533 350.373 197.258 348.027 202C346.803 204.474 347.004 207.32 347 210C346.994 213.315 346.664 216.939 348.178 220C350.317 224.322 354.478 227.092 355.606 232C356.35 235.239 354.747 242.083 359.129 243.248C364.317 244.629 363.994 236.991 364 234L364 201L364 149C364 137.707 365.542 125.127 363.535 114C361.448 102.42 355.397 91.3907 348.575 82C343.32 74.7666 336.169 69.6137 330.534 62.8302C326.921 58.4806 327.285 54.2194 332.044 50.9699C337.418 47.3004 343.825 48 350 48L385 48C390.506 48 398.069 46.8288 402.606 50.7029C406.172 53.7469 406.519 58.7514 407.5 63C410.393 75.5337 421.467 99.0748 438 87.4861C448.597 80.0582 451 69.0213 451 57C451 53.1629 451.639 48.5442 449.821 45.0154C446.612 38.7857 438.854 36.9084 436.148 30C432.809 21.474 435 9.05396 435 0L424 0C424 10.8348 428.447 32.9574 414.999 37.196C405.873 40.0726 393.513 38 384 38L343 38C336.273 38 328.607 39.0107 322 37.6559C315.541 36.3315 312.455 29.4046 306 28.2284C293.155 25.8877 278.061 28 265 28C242.145 28 218.806 26.6171 196 28.044C188.358 28.5221 185.164 36.1868 178 37.6559C171.087 39.0733 163.039 38 156 38L113 38C104.264 38 92.2274 40.1169 84.0039 36.8519C71.7155 31.9729 76 10.4901 76 0L65 0z"/>
<path fill="none" d="M76 0C76 9.77576 71.6781 32.271 83.0154 36.8519C91.1816 40.1514 103.307 38 112 38L156 38C163.351 38 171.782 39.1359 179 37.6559C186.164 36.1868 189.358 28.5221 197 28.044C219.476 26.6378 242.476 28 265 28C277.746 28 292.465 25.9442 305 28.2284C311.455 29.4046 314.541 36.3315 321 37.6559C327.913 39.0733 335.961 38 343 38L385 38C394.495 38 406.893 40.0903 415.996 37.196C428.511 33.2169 424 10.1488 424 0L76 0z"/>
<path fill="rgb(27,167,217)" d="M0 23C7.7051 24.1379 14.0239 26.9995 22 27L38 27C42.6996 27 49.4868 28.2256 53.8912 26.3966C58.4501 24.5034 58.5233 18.6154 54.7716 15.8573C51.609 13.5322 46.7501 13.3921 43 12.8696C33.3606 11.5264 23.7496 10.6087 14 11.0394C10.4826 11.1947 4.35551 11.4536 1.6034 13.9383C-0.690127 16.0089 0.0021392 20.2316 0 23M96 11.4244C92.5325 11.881 88.0849 11.5758 85.1489 13.7423C79.8607 17.6445 84.2514 22.9514 89.0008 24.4421C99.0491 27.5962 109.623 27 120 27C124.422 27 129.702 27.7638 133.995 26.5664C143.551 23.9012 136.899 15.8273 131 13.5633C120.75 9.62946 106.747 10.0092 96 11.4244M379 11.439C373.739 12.2608 367.379 13.319 363.059 16.6489C359.542 19.3601 358.671 23.5504 363.059 25.9722C366.393 27.8116 371.334 27 375 27C383.778 27 393.337 28.0537 402 26.5363C405.897 25.8537 411.57 25.467 414.852 23.142C419.269 20.0127 417.584 14.5884 412.981 12.7423C404.013 9.14642 388.407 9.96976 379 11.439M500 23L500 13C484.856 11.076 471.147 10.5234 456 13.081C451.319 13.8714 442.194 14.4117 442.377 21C442.582 28.4073 452.036 27 457 27C466.496 27 476.571 27.9591 486 26.8156C490.789 26.2348 495.311 24.0847 500 23z"/>
<path fill="rgb(233,21,21)" d="M314 267C316.252 258.771 321.952 252.722 325.279 245C331.573 230.386 333.892 213.772 331.41 198C330.189 190.246 327.728 181.514 323.201 175C318.473 168.199 311.508 162.392 309.529 154C306.416 140.806 304.788 129.875 295.624 119.039C277.109 97.1453 241.057 91.6436 217 107.85C207.83 114.028 197.973 124.205 194.623 135C192.25 142.646 192.259 151.878 188.559 159C185.292 165.286 179.58 170.13 175.695 176C170.47 183.896 168.046 195.666 168.001 205C167.915 222.78 170.247 239.868 180.424 255C182.545 258.153 184.715 264.77 188.275 266.397C191.521 267.88 196.512 267 200 267L225 267L314 267z"/>
<path fill="rgb(255,255,255)" d="M243 119.464C237.951 120.356 232.692 121.802 228 123.877C215.691 129.319 209.74 143.662 221.185 153.39C230.665 161.448 245.9 164.675 258 162.536C262.531 161.735 266.913 160.325 271 158.215C273.984 156.675 277.122 154.998 279.532 152.621C288.001 144.268 285.733 133.83 276.829 126.789C268.417 120.138 253.373 117.631 243 119.464M242.214 180.742C238.27 182.531 238.055 187.257 238.004 191C237.906 198.228 240.117 209.156 237.397 215.906C235.913 219.589 229.648 220.807 229.752 225.054C229.837 228.56 233.632 231.544 235.704 234C239.014 237.924 245.518 249.944 251.965 247.607C257.883 245.462 263.178 235.78 266.956 231C268.465 229.092 270.443 226.769 269.914 224.13C268.947 219.305 262.57 218.802 262.059 212.996C261.449 206.082 262.082 198.94 261.996 192C261.951 188.381 261.853 184.183 258.721 181.742C256.031 179.646 252.205 179.989 249 180.001C246.801 180.009 244.271 179.809 242.214 180.742z"/>
</svg>